<?xml version="1.0" encoding="UTF-8" standalone="no"?>
<!-- Created with Inkscape (http://www.inkscape.org/) -->

<svg
   width="210mm"
   height="102.882mm"
   viewBox="0 0 209.99999 102.882"
   version="1.1"
   id="svg1"
   xmlns="http://www.w3.org/2000/svg"
   xmlns:svg="http://www.w3.org/2000/svg">
  <defs
     id="defs1" />
  <path
     id="path16"
     style="-inkscape-font-specification:Arial;stroke-width:0.2;stroke-dasharray:none;stroke:#000000;stroke-opacity:1;fill:none"
     d="m 102.20723,90.774821 c 0.43408,0 0.79582,0.204985 1.0852,0.61495 0.29284,0.409964 0.43925,1.238516 0.43925,2.485636 0,1.240229 -0.14641,2.067059 -0.43925,2.480469 -0.28938,0.41341 -0.64768,0.620117 -1.07487,0.620117 -0.42719,0 -0.7872,-0.204985 -1.08003,-0.61495 -0.28939,-0.413409 -0.43409,-1.241962 -0.43409,-2.485636 0,-1.243675 0.1602,-2.096343 0.48059,-2.557983 0.25494,-0.361734 0.59601,-0.542603 1.0232,-0.542603 l 0.0103,-0.769979 c -0.55121,0 -1.00941,0.14814 -1.37459,0.444417 -0.36173,0.296277 -0.63562,0.718305 -0.82166,1.266073 -0.182581,0.544323 -0.27388,1.264354 -0.27388,2.160075 0,1.422818 0.249769,2.449465 0.74931,3.079915 0.41685,0.523652 0.99046,0.785482 1.72082,0.785482 0.55466,0 1.01286,-0.14814 1.3746,-0.444417 0.36518,-0.299722 0.63906,-0.72175 0.82165,-1.266073 0.18259,-0.547768 0.27389,-1.266077 0.27389,-2.154907 0,-0.751028 -0.0568,-1.347034 -0.17054,-1.788005 -0.11368,-0.444415 -0.27044,-0.819934 -0.47025,-1.126546 -0.19982,-0.310057 -0.45303,-0.546048 -0.75964,-0.707967 -0.30661,-0.165364 -0.66319,-0.248047 -1.06971,-0.248047 z" />
  <path
     id="path69"
     style="color:#000000;fill:none;fill-rule:evenodd;stroke:#000000;stroke-width:0.179103;stroke-dasharray:none;stroke-opacity:1"
     d="m 173.75612,4.7012142 c -7.14797,0.1239786 -14.61105,2.725362 -18.5626,8.4479048 l 0.73988,0.508979 c 3.7224,-5.3903427 10.90219,-7.9444769 17.84202,-8.0649016 6.40978,-0.1111847 12.54948,1.884826 15.48598,5.3836066 l -1.18767,0.757309 3.42456,1.778786 -0.0139,-0.363779 -0.15197,-3.4910981 -1.30646,0.8325481 C 186.85459,6.5872248 180.4096,4.5857649 173.75612,4.7012142 Z" />
  <rect
     id="rect1"
     width="50.069759"
     height="32.30307"
     x="7.3241954"
     y="21.503059"
     style="fill:none;fill-opacity:1;stroke:#000000;stroke-width:0.179103;stroke-linecap:round;stroke-dasharray:none;stroke-opacity:1" />
  <path
     id="path39-8"
     style="font-size:3.09841px;line-height:1.25;font-family:Arial;-inkscape-font-specification:Arial;fill:none;fill-opacity:1;stroke:#000000;stroke-width:0.179103;stroke-dasharray:none;stroke-opacity:1"
     d="m 104.61109,73.573482 c -0.75105,0 -1.36197,0.253847 -1.83311,0.758832 -0.47114,0.505323 -0.70671,1.215416 -0.70671,2.130278 0,0.884401 0.23185,1.570801 0.69622,2.062248 0.46775,0.488062 1.09898,0.73277 1.89437,0.73277 0.63157,0 1.15043,-0.152647 1.55658,-0.45997 0.40616,-0.306985 0.68403,-0.739539 0.83431,-1.29597 l -0.95141,-0.117108 c -0.14013,0.389231 -0.32967,0.672524 -0.56862,0.849878 -0.23895,0.177692 -0.52766,0.266031 -0.86579,0.266031 -0.45387,0 -0.83295,-0.158401 -1.13689,-0.475878 -0.3036,-0.317477 -0.47283,-0.775416 -0.50701,-1.372801 h 4.05578 c 0.003,-0.109323 0.005,-0.192246 0.005,-0.246738 0,-0.897939 -0.22982,-1.593478 -0.6908,-2.08831 -0.46065,-0.495169 -1.05499,-0.743262 -1.78234,-0.743262 l 0.0105,0.758832 c 0.46775,0 0.84852,0.176677 1.14231,0.531723 0.19123,0.2288 0.30698,0.573016 0.34794,1.030278 h -3.03634 c 0.0308,-0.474524 0.1892,-0.853601 0.47587,-1.136893 0.29007,-0.283293 0.64714,-0.425108 1.07022,-0.425108 z" />
  <path
     style="fill:none;fill-opacity:1;stroke:#000000;stroke-width:0.179103;stroke-linecap:butt;stroke-linejoin:miter;stroke-dasharray:none;stroke-opacity:1"
     d="m 88.561907,38.635765 c 0,0 -0.801477,-29.337529 13.786903,-22.924964 14.58872,6.412564 4.96997,15.390195 -1.122,9.779176 -6.091975,-5.610986 -9.458654,2.404737 -3.20625,5.130065 6.25207,2.725362 17.63454,-3.526907 20.68035,1.603158 3.04616,5.130133 -1.76338,13.145923 -1.76338,13.145923 L 96.257174,56.911686 Z"
     id="path1" />
  <path
     style="font-size:3.09841px;line-height:1.25;font-family:Arial;-inkscape-font-specification:Arial;fill:none;fill-opacity:1;stroke:#000000;stroke-width:0.179103;stroke-dasharray:none;stroke-opacity:1"
     d="m 123.36289,79.134409 v -5.438065 h 0.82415 v 0.763231 c 0.17092,-0.266369 0.39769,-0.4796 0.68099,-0.640031 0.28363,-0.164154 0.60618,-0.246062 0.968,-0.246062 0.40277,0 0.73209,0.0836 0.9883,0.251139 0.25927,0.1672 0.44204,0.401077 0.54764,0.701293 0.43018,-0.634954 0.99,-0.952432 1.67978,-0.952432 0.53917,0 0.95413,0.150277 1.24419,0.450831 0.29006,0.296831 0.43526,0.756124 0.43526,1.377201 v 3.732895 h -0.91656 v -3.425571 c 0,-0.368585 -0.0308,-0.633262 -0.0921,-0.793693 -0.0582,-0.163816 -0.1655,-0.295139 -0.32255,-0.394308 -0.15705,-0.09883 -0.34151,-0.148585 -0.55305,-0.148585 -0.38246,0 -0.69994,0.128277 -0.95243,0.384154 -0.25283,0.252831 -0.37908,0.658985 -0.37908,1.218801 v 3.159202 h -0.92163 v -3.533202 c 0,-0.409539 -0.0751,-0.716862 -0.22541,-0.921632 -0.15028,-0.204769 -0.396,-0.306984 -0.73717,-0.306984 -0.2596,0 -0.50025,0.06803 -0.72228,0.204769 -0.21831,0.1364 -0.37705,0.336093 -0.47622,0.599077 -0.0988,0.262647 -0.14824,0.641724 -0.14824,1.136555 v 2.821756 z"
     id="path32" />
  <path
     style="font-size:3.09841px;line-height:1.25;font-family:Arial;-inkscape-font-specification:Arial;fill:none;fill-opacity:1;stroke:#000000;stroke-width:0.179103;stroke-dasharray:none;stroke-opacity:1"
     d="m 119.86015,79.134409 v -5.438065 h 0.82957 v 0.824493 c 0.21187,-0.385508 0.40615,-0.640031 0.58384,-0.762893 0.18074,-0.122862 0.37874,-0.184462 0.594,-0.184462 0.31071,0 0.62649,0.09917 0.94736,0.29717 l -0.31748,0.854954 c -0.22542,-0.133015 -0.45083,-0.199692 -0.67591,-0.199692 -0.20138,0 -0.38246,0.0616 -0.54289,0.184462 -0.16043,0.119477 -0.27483,0.286677 -0.3432,0.501938 -0.10222,0.327631 -0.15366,0.686062 -0.15366,1.075293 v 2.846802 z"
     id="path31" />
  <path
     id="path29"
     style="font-size:3.09841px;line-height:1.25;font-family:Arial;-inkscape-font-specification:Arial;fill:none;fill-opacity:1;stroke:#000000;stroke-width:0.179103;stroke-dasharray:none;stroke-opacity:1"
     d="m 114.53513,74.178652 c -0.55982,0.484677 -0.83973,1.22997 -0.83973,2.237232 0,0.918247 0.23388,1.620894 0.7013,2.109294 0.47113,0.488062 1.08747,0.73277 1.84901,0.73277 0.47453,0 0.91046,-0.112031 1.30985,-0.334062 0.40277,-0.222031 0.7084,-0.531046 0.91655,-0.930431 0.21154,-0.40277 0.31816,-0.954801 0.31816,-1.65474 0,-0.863754 -0.23726,-1.538986 -0.71179,-2.027047 -0.47452,-0.491447 -1.08544,-0.738186 -1.83277,-0.738186 v 0.762555 c 0.45388,0 0.83296,0.174985 1.1369,0.522923 0.30698,0.344893 0.45996,0.852924 0.45996,1.525447 0,0.713478 -0.15095,1.245201 -0.45489,1.59314 -0.30394,0.348277 -0.68471,0.521231 -1.14197,0.521231 -0.46098,0 -0.84378,-0.171261 -1.14738,-0.515816 -0.30394,-0.348277 -0.45659,-0.870862 -0.45659,-1.567078 0,-0.696554 0.15265,-1.217108 0.45659,-1.562001 0.3036,-0.344892 0.6864,-0.517846 1.14738,-0.517846 v -0.762555 c -0.67252,0 -1.24317,0.202401 -1.71058,0.60517" />
  <path
     style="font-size:3.09841px;line-height:1.25;font-family:Arial;-inkscape-font-specification:Arial;fill:none;fill-opacity:1;stroke:#000000;stroke-width:0.179103;stroke-dasharray:none;stroke-opacity:1"
     d="m 111.34479,79.134409 v -4.720864 h -0.81434 v -0.717201 h 0.81434 v -0.578431 c 0,-0.3652 0.0325,-0.636647 0.0971,-0.814339 0.089,-0.238954 0.24437,-0.431539 0.46607,-0.578431 0.22541,-0.150277 0.5395,-0.225416 0.94227,-0.225416 0.25927,0 0.54628,0.0308 0.86003,0.09206 l -0.13809,0.804185 c -0.19123,-0.03418 -0.37197,-0.05145 -0.54289,-0.05145 -0.27991,0 -0.47791,0.05991 -0.594,0.179384 -0.11609,0.119477 -0.17397,0.342862 -0.17397,0.670832 v 0.5016 h 1.06006 V 74.4132 h -1.06006 v 4.721203 z"
     id="path28" />
  <path
     style="font-size:3.09841px;line-height:1.25;font-family:Arial;-inkscape-font-specification:Arial;fill:none;fill-opacity:1;stroke:#000000;stroke-width:0.179103;stroke-dasharray:none;stroke-opacity:1"
     d="m 100.02832,79.134409 v -7.506743 h 0.92163 v 7.506743 z"
     id="path25" />
  <path
     style="font-size:3.09841px;line-height:1.25;font-family:Arial;-inkscape-font-specification:Arial;fill:none;fill-opacity:1;stroke:#000000;stroke-width:0.179103;stroke-dasharray:none;stroke-opacity:1"
     d="m 85.48089,79.134409 v -5.438065 h 0.824154 v 0.763231 c 0.170923,-0.266369 0.397693,-0.4796 0.680985,-0.640031 0.283631,-0.164154 0.606185,-0.246062 0.968001,-0.246062 0.402769,0 0.732093,0.0836 0.988308,0.251139 0.259262,0.1672 0.442031,0.401077 0.547631,0.701293 0.430185,-0.634954 0.990001,-0.952432 1.679786,-0.952432 0.53917,0 0.954124,0.150277 1.244186,0.450831 0.290061,0.296831 0.435262,0.756124 0.435262,1.377201 v 3.732895 h -0.916555 v -3.425571 c 0,-0.368585 -0.0308,-0.633262 -0.09206,-0.793693 -0.05822,-0.163816 -0.165507,-0.295139 -0.322554,-0.394308 -0.157046,-0.09883 -0.341508,-0.148585 -0.553046,-0.148585 -0.382462,0 -0.699939,0.128277 -0.952432,0.384154 -0.252831,0.252831 -0.379077,0.658985 -0.379077,1.218801 v 3.159202 h -0.921631 v -3.533202 c 0,-0.409539 -0.07514,-0.716862 -0.225416,-0.921632 -0.150277,-0.204769 -0.396,-0.306984 -0.73717,-0.306984 -0.2596,0 -0.500246,0.06803 -0.722277,0.204769 -0.218308,0.1364 -0.377046,0.336093 -0.476216,0.599077 -0.09883,0.262647 -0.148246,0.641724 -0.148246,1.136555 v 2.821756 z"
     id="path22" />
  <path
     style="font-size:3.09841px;line-height:1.25;font-family:Arial;-inkscape-font-specification:Arial;fill:none;fill-opacity:1;stroke:#000000;stroke-width:0.179103;stroke-dasharray:none;stroke-opacity:1"
     d="m 83.155996,79.134409 v -5.438065 h 0.921631 v 5.438065 z"
     id="path21" />
  <path
     style="font-size:3.09841px;line-height:1.25;font-family:Arial;-inkscape-font-specification:Arial;fill:none;fill-opacity:1;stroke:#000000;stroke-width:0.179103;stroke-dasharray:none;stroke-opacity:1"
     d="m 83.155996,72.687728 v -1.060062 h 0.921631 v 1.060062 z"
     id="path20" />
  <path
     style="font-size:3.09841px;line-height:1.25;font-family:Arial;-inkscape-font-specification:Arial;fill:none;fill-opacity:1;stroke:#000000;stroke-width:0.179103;stroke-dasharray:none;stroke-opacity:1"
     d="m 77.538884,77.511485 0.911139,-0.143508 c 0.05145,0.365201 0.192923,0.645109 0.425108,0.839724 0.235569,0.194616 0.5632,0.291754 0.983231,0.291754 0.423416,0 0.73717,-0.08529 0.942278,-0.255877 0.204769,-0.173969 0.306985,-0.377385 0.306985,-0.609231 0,-0.208493 -0.09037,-0.372308 -0.271108,-0.491785 -0.126585,-0.08191 -0.440677,-0.185816 -0.942278,-0.3124 -0.675908,-0.170585 -1.145354,-0.317477 -1.408339,-0.440339 -0.259262,-0.126246 -0.457262,-0.298523 -0.594001,-0.51717 -0.133015,-0.221692 -0.199692,-0.466062 -0.199692,-0.732093 0,-0.242338 0.05483,-0.466061 0.164154,-0.670831 0.112369,-0.208154 0.264339,-0.380769 0.455569,-0.517169 0.143508,-0.105939 0.337785,-0.194616 0.583847,-0.26637 0.249108,-0.07514 0.515477,-0.112708 0.79877,-0.112708 0.4268,0 0.800462,0.0616 1.121324,0.184462 0.324246,0.122862 0.5632,0.290062 0.716862,0.501939 0.153661,0.208154 0.2596,0.488062 0.317477,0.839724 l -0.901324,0.122861 c -0.04095,-0.279908 -0.160431,-0.498554 -0.358431,-0.6556 -0.194615,-0.157047 -0.471139,-0.23557 -0.82957,-0.23557 -0.423077,0 -0.725323,0.07006 -0.906062,0.210185 -0.181077,0.139785 -0.271446,0.3036 -0.271446,0.491447 0,0.119477 0.03757,0.227107 0.112708,0.322554 0.07514,0.09917 0.192584,0.181077 0.353354,0.245723 0.09206,0.03418 0.363508,0.112708 0.814,0.235569 0.651878,0.174308 1.106093,0.317477 1.361971,0.430185 0.2596,0.109323 0.462677,0.269754 0.609569,0.481293 0.146554,0.211877 0.22,0.474523 0.22,0.788616 0,0.307323 -0.09037,0.597385 -0.271446,0.870524 -0.177354,0.269754 -0.435262,0.4796 -0.773047,0.629877 -0.338123,0.146892 -0.720246,0.22 -1.147047,0.22 -0.706708,0 -1.245878,-0.146554 -1.618185,-0.440339 -0.368585,-0.293446 -0.604155,-0.728708 -0.70637,-1.305785 z"
     id="text2" />
  <path
     id="path55"
     style="font-size:3.09841px;line-height:1.25;font-family:Arial;-inkscape-font-specification:Arial;fill:none;fill-opacity:1;stroke:#000000;stroke-width:0.179103;stroke-dasharray:none;stroke-opacity:1"
     d="m 96.546221,74.29576 c 0.396,0 0.7348,0.172954 1.018093,0.517846 0.286677,0.344893 0.430185,0.863755 0.430185,1.556586 0,0.727354 -0.1452,1.264493 -0.438985,1.61277 -0.290062,0.344893 -0.641385,0.517509 -1.051263,0.517509 -0.402769,0 -0.744954,-0.167201 -1.028246,-0.501939 -0.283293,-0.334401 -0.425109,-0.85157 -0.425109,-1.551171 0,-0.699939 0.150954,-1.233354 0.45117,-1.598893 0.303939,-0.368585 0.651877,-0.552708 1.044155,-0.552708 l 0.142154,-0.722278 c -0.409539,0 -0.713139,0.07006 -0.962247,0.209847 -0.249108,0.136738 -0.471816,0.344554 -0.669816,0.621077 v -0.706708 h -0.839724 v 7.520959 h 0.92197 v -2.646433 c 0.157046,0.198001 0.355723,0.361816 0.598062,0.491447 0.245723,0.129969 0.521908,0.194277 0.828893,0.194277 0.420031,0 0.821108,-0.117785 1.199847,-0.353354 0.382462,-0.238954 0.671508,-0.579447 0.869508,-1.02317 0.201385,-0.447108 0.302585,-0.949385 0.302585,-1.505817 0,-0.518861 -0.09037,-0.995416 -0.271108,-1.428985 -0.181077,-0.436954 -0.449477,-0.775416 -0.804523,-1.01437 -0.355047,-0.238954 -0.76357,-0.35877 -1.173447,-0.35877 z" />
  <path
     style="font-size:3.09841px;line-height:1.25;font-family:Arial;-inkscape-font-specification:Arial;fill:none;fill-opacity:1;stroke:#000000;stroke-width:0.179103;stroke-dasharray:none;stroke-opacity:1"
     d="m 56.420222,79.07044 v -5.438065 h 0.82957 v 0.824493 c 0.211539,-0.385847 0.406154,-0.640032 0.583847,-0.762893 0.180738,-0.122862 0.378738,-0.184462 0.593662,-0.184462 0.310708,0 0.626492,0.09917 0.947354,0.29717 l -0.317477,0.854954 c -0.225077,-0.133015 -0.450493,-0.199692 -0.675908,-0.199692 -0.201385,0 -0.382123,0.0616 -0.542554,0.184461 -0.160431,0.119477 -0.274831,0.286677 -0.343201,0.501939 -0.102554,0.327631 -0.153661,0.686062 -0.153661,1.075293 v 2.846802 z"
     id="path47" />
  <path
     id="path45"
     style="font-size:3.09841px;line-height:1.25;font-family:Arial;-inkscape-font-specification:Arial;fill:none;fill-opacity:1;stroke:#000000;stroke-width:0.179103;stroke-dasharray:none;stroke-opacity:1"
     d="m 50.285264,77.636716 c 0,0.453877 0.160092,0.827539 0.481293,1.120986 0.320861,0.290061 0.780831,0.4356 1.378216,0.4356 0.361816,0 0.700277,-0.05889 1.01437,-0.17837 0.317477,-0.119477 0.6468,-0.3256 0.988308,-0.615662 0.02742,0.255878 0.088,0.480278 0.183447,0.671509 h 0.961908 c -0.115754,-0.208154 -0.193262,-0.425447 -0.234215,-0.650524 -0.03757,-0.2288 -0.05618,-0.771693 -0.05618,-1.62834 v -1.229631 c 0,-0.409877 -0.01658,-0.69317 -0.04705,-0.850216 -0.05449,-0.252493 -0.150277,-0.460308 -0.287016,-0.624462 -0.1364,-0.1672 -0.349969,-0.305293 -0.640031,-0.414277 -0.290062,-0.109324 -0.667447,-0.164493 -1.131478,-0.164493 -0.467754,0 -0.878308,0.066 -1.233355,0.19597 -0.354708,0.126246 -0.627169,0.308338 -0.815016,0.547292 -0.187507,0.23557 -0.321877,0.546616 -0.403785,0.932462 l 0.900647,0.122185 c 0.09883,-0.385508 0.251816,-0.654246 0.456585,-0.804523 0.208154,-0.153662 0.528339,-0.229139 0.961909,-0.229139 0.464369,0 0.814,0.103231 1.04957,0.311385 0.173969,0.153661 0.262308,0.418677 0.262308,0.794031 0,0.03418 -0.002,0.115077 -0.0054,0.241323 -0.351662,0.122862 -0.89997,0.227785 -1.644247,0.316801 -0.3652,0.04434 -0.637662,0.09037 -0.818401,0.138092 -0.246062,0.06803 -0.468431,0.169231 -0.666431,0.302585 -0.194616,0.133015 -0.353016,0.309692 -0.475877,0.531723 -0.119477,0.218308 -0.180062,0.461324 -0.180062,0.727355 l 0.982893,-0.0264 c 0,-0.160431 0.04231,-0.303939 0.1276,-0.43357 0.08563,-0.133015 0.2068,-0.234215 0.363847,-0.302585 0.157046,-0.06837 0.425784,-0.128954 0.804523,-0.183785 0.669139,-0.09545 1.171416,-0.21323 1.506155,-0.349631 v 0.339139 c 0,0.406154 -0.04975,0.713478 -0.148923,0.92197 -0.129631,0.269416 -0.333723,0.482985 -0.610247,0.640031 -0.276523,0.153662 -0.591292,0.229139 -0.946339,0.229139 -0.358431,0 -0.632585,-0.08089 -0.820093,-0.245046 -0.184461,-0.163816 -0.276523,-0.369601 -0.276523,-0.615662 z" />
  <path
     style="font-size:3.09841px;line-height:1.25;font-family:Arial;-inkscape-font-specification:Arial;fill:none;fill-opacity:1;stroke:#000000;stroke-width:0.179103;stroke-dasharray:none;stroke-opacity:1"
     d="m 48.329632,79.07044 v -0.79877 c -0.423077,0.614647 -0.998462,0.921632 -1.725478,0.921632 -0.320862,0 -0.621416,-0.06126 -0.901324,-0.184123 -0.276523,-0.122862 -0.482985,-0.276524 -0.619724,-0.460985 -0.133015,-0.187847 -0.226769,-0.416308 -0.2816,-0.686062 -0.03757,-0.181077 -0.05619,-0.467755 -0.05619,-0.86037 v -3.369387 h 0.921632 v 3.016033 c 0,0.481292 0.01895,0.805877 0.05652,0.973077 0.05788,0.242339 0.180739,0.43357 0.368585,0.573355 0.187846,0.136738 0.419693,0.204769 0.696216,0.204769 0.276523,0 0.536123,-0.06972 0.778462,-0.209846 0.242339,-0.14317 0.412923,-0.336093 0.512093,-0.578432 0.102215,-0.246061 0.153661,-0.601108 0.153661,-1.065139 v -2.913817 h 0.921632 v 5.438065 z"
     id="path44" />
  <path
     style="font-size:3.09841px;line-height:1.25;font-family:Arial;-inkscape-font-specification:Arial;fill:none;fill-opacity:1;stroke:#000000;stroke-width:0.179103;stroke-dasharray:none;stroke-opacity:1"
     d="m 33.32129,77.447177 0.911408,-0.143169 c 0.05111,0.3652 0.192924,0.645108 0.425108,0.839724 0.23557,0.194615 0.563201,0.291754 0.983232,0.291754 0.423077,0 0.73717,-0.08529 0.941939,-0.255877 0.204769,-0.174308 0.307323,-0.377385 0.307323,-0.609231 0,-0.208493 -0.09037,-0.372308 -0.271446,-0.491785 -0.126246,-0.08191 -0.440339,-0.186154 -0.941939,-0.312401 -0.675908,-0.170584 -1.145355,-0.317477 -1.40834,-0.440338 -0.259261,-0.126247 -0.457429,-0.298524 -0.593965,-0.51717 -0.133117,-0.221692 -0.199692,-0.466062 -0.199692,-0.732093 0,-0.242338 0.05463,-0.466062 0.163849,-0.670831 0.11264,-0.208154 0.26461,-0.38077 0.455839,-0.51717 0.143169,-0.105938 0.337785,-0.194615 0.583508,-0.266369 0.249447,-0.07514 0.515477,-0.112708 0.79877,-0.112708 0.4268,0 0.800801,0.0616 1.121662,0.184462 0.324247,0.122861 0.563201,0.290062 0.716862,0.501939 0.153662,0.208154 0.259262,0.488061 0.317478,0.839723 l -0.901324,0.122862 c -0.04095,-0.279908 -0.160431,-0.498554 -0.358431,-0.655601 -0.194616,-0.157046 -0.471139,-0.235569 -0.82957,-0.235569 -0.423077,0 -0.725324,0.07006 -0.906401,0.210185 -0.180738,0.139785 -0.271108,0.3036 -0.271108,0.491446 0,0.119477 0.03723,0.227108 0.11237,0.322554 0.07514,0.09917 0.192923,0.181077 0.353354,0.245724 0.0924,0.03418 0.363508,0.112707 0.814339,0.235569 0.651877,0.174308 1.106093,0.317477 1.36197,0.430185 0.2596,0.109323 0.462677,0.269754 0.609231,0.481293 0.146893,0.211877 0.220339,0.474523 0.220339,0.788616 0,0.307323 -0.09037,0.597385 -0.271446,0.870523 -0.177354,0.269754 -0.435262,0.479601 -0.773047,0.629878 -0.338123,0.146892 -0.720585,0.22 -1.147047,0.22 -0.706708,0 -1.246216,-0.146554 -1.618186,-0.440339 -0.368685,-0.293446 -0.604221,-0.728708 -0.706639,-1.305786 z"
     id="path41" />
  <path
     id="path39"
     style="font-size:3.09841px;line-height:1.25;font-family:Arial;-inkscape-font-specification:Arial;fill:none;fill-opacity:1;stroke:#000000;stroke-width:0.179103;stroke-dasharray:none;stroke-opacity:1"
     d="m 27.176956,73.508836 c -0.751013,0 -1.361902,0.253847 -1.833007,0.75917 -0.471071,0.504985 -0.706607,1.215416 -0.706607,2.130278 0,0.884063 0.231846,1.570463 0.696114,2.062248 0.467687,0.488062 1.09885,0.73277 1.894236,0.73277 0.631536,0 1.150431,-0.152985 1.556653,-0.45997 0.406222,-0.307323 0.684099,-0.739877 0.834308,-1.296308 L 28.66717,77.319916 c -0.139954,0.389231 -0.329493,0.672523 -0.568447,0.850216 -0.238954,0.177354 -0.527831,0.265692 -0.865785,0.265692 -0.454013,0 -0.833056,-0.158061 -1.136893,-0.475538 -0.303804,-0.317478 -0.473068,-0.775755 -0.507219,-1.37314 h 4.056058 c 0.0034,-0.109323 0.0054,-0.191908 0.0054,-0.246739 0,-0.8976 -0.230019,-1.593139 -0.690869,-2.088309 -0.460849,-0.494831 -1.055188,-0.743262 -1.782306,-0.743262 l 0.01049,0.75917 c 0.467686,0 0.848557,0.176677 1.142139,0.531723 0.191163,0.228801 0.30712,0.572678 0.348074,1.02994 h -3.036374 c 0.0308,-0.474185 0.188997,-0.853263 0.475742,-1.136555 0.290163,-0.283631 0.647138,-0.425108 1.070419,-0.425108 z" />
  <path
     id="path39-5"
     style="font-size:3.09841px;line-height:1.25;font-family:Arial;-inkscape-font-specification:Arial;fill:none;fill-opacity:1;stroke:#000000;stroke-width:0.179103;stroke-dasharray:none;stroke-opacity:1"
     d="m 62.155119,73.509175 c -0.751047,0 -1.36197,0.253846 -1.833109,0.759169 -0.471139,0.505324 -0.70637,1.215417 -0.70637,2.130279 0,0.884401 0.231846,1.570801 0.695877,2.062248 0.467755,0.488061 1.098986,0.732769 1.894371,0.732769 0.63157,0 1.150432,-0.152646 1.556586,-0.459969 0.406154,-0.307324 0.684031,-0.739539 0.834308,-1.29597 l -0.951416,-0.117108 c -0.140123,0.389231 -0.329662,0.672523 -0.568616,0.849877 -0.238954,0.177693 -0.527662,0.266031 -0.865785,0.266031 -0.453877,0 -0.832954,-0.1584 -1.136893,-0.475877 -0.3036,-0.317477 -0.472831,-0.775416 -0.507016,-1.372801 h 4.056126 c 0.0034,-0.109323 0.0054,-0.192246 0.0054,-0.246739 0,-0.897939 -0.230154,-1.593478 -0.691138,-2.088309 -0.460647,-0.495169 -1.054986,-0.743262 -1.78234,-0.743262 l 0.01049,0.758831 c 0.467754,0 0.848862,0.176677 1.142309,0.531724 0.191231,0.2288 0.306984,0.572677 0.347938,1.030278 h -3.03634 c 0.0308,-0.474524 0.1892,-0.853601 0.475877,-1.136894 0.290062,-0.283292 0.647139,-0.425108 1.070216,-0.425108 z" />
  <path
     style="font-size:3.09841px;line-height:1.25;font-family:Arial;-inkscape-font-specification:Arial;fill:none;fill-opacity:1;stroke:#000000;stroke-width:0.179103;stroke-dasharray:none;stroke-opacity:1"
     d="m 22.59371,79.07044 v -7.506744 h 0.921699 v 7.506744 z"
     id="path38" />
  <path
     id="path36"
     style="font-size:3.09841px;line-height:1.25;font-family:Arial;-inkscape-font-specification:Arial;fill:none;fill-opacity:1;stroke:#000000;stroke-width:0.179103;stroke-dasharray:none;stroke-opacity:1"
     d="m 19.112089,74.231114 c 0.396,0 0.734597,0.172954 1.017958,0.517846 0.286744,0.344554 0.430252,0.863755 0.430252,1.556586 0,0.727016 -0.145437,1.264493 -0.439019,1.61277 -0.290163,0.344554 -0.64152,0.517508 -1.05116,0.517508 -0.402838,0 -0.745124,-0.167538 -1.02845,-0.501938 -0.283327,-0.334401 -0.425041,-0.85157 -0.425041,-1.551509 0,-0.699601 0.150853,-1.233355 0.451271,-1.598555 0.303838,-0.368585 0.651607,-0.552708 1.044189,-0.552708 l 0.142086,-0.722278 c -0.40964,0 -0.713173,0.07006 -0.962382,0.209846 -0.24921,0.136401 -0.471884,0.344555 -0.669884,0.621078 v -0.706708 h -0.839554 v 7.520959 h 0.921767 v -2.646433 c 0.157046,0.198 0.355791,0.361816 0.598163,0.491447 0.245791,0.129631 0.521807,0.194277 0.829062,0.194277 0.419862,0 0.820906,-0.117785 1.199847,-0.353354 0.382327,-0.238954 0.671272,-0.579447 0.869272,-1.02317 0.201418,-0.447108 0.302585,-0.949724 0.302585,-1.506155 0,-0.518862 -0.0902,-0.995416 -0.271108,-1.428647 -0.180942,-0.436955 -0.449545,-0.775755 -0.804558,-1.014709 -0.355046,-0.238954 -0.76357,-0.358431 -1.17321,-0.358431 z" />
  <path
     style="font-size:3.09841px;line-height:1.25;font-family:Arial;-inkscape-font-specification:Arial;fill:none;fill-opacity:1;stroke:#000000;stroke-width:0.179103;stroke-dasharray:none;stroke-opacity:1"
     d="m 8.0461485,79.07044 v -5.438065 h 0.8243914 v 0.763231 c 0.1706862,-0.266369 0.3976926,-0.479939 0.6810528,-0.64037 0.2833263,-0.163815 0.6059483,-0.245723 0.9677973,-0.245723 0.402804,0 0.732229,0.0836 0.988275,0.251139 0.259431,0.1672 0.442065,0.401077 0.547902,0.701293 0.430117,-0.634955 0.989967,-0.952432 1.679515,-0.952432 0.539373,0 0.954157,0.150277 1.244321,0.450831 0.290163,0.296831 0.435228,0.756124 0.435228,1.377201 v 3.732895 h -0.916555 v -3.425572 c 0,-0.368584 -0.03073,-0.633262 -0.09216,-0.793692 -0.05805,-0.163816 -0.165575,-0.295139 -0.322588,-0.394308 -0.157046,-0.09883 -0.341372,-0.148585 -0.553046,-0.148585 -0.382327,0 -0.699804,0.128277 -0.952398,0.384154 -0.252628,0.252493 -0.378942,0.658985 -0.378942,1.218801 V 79.07044 H 11.27724 v -3.533202 c 0,-0.409539 -0.07511,-0.716862 -0.225314,-0.921632 -0.150209,-0.204769 -0.396,-0.307323 -0.737373,-0.307323 -0.259431,0 -0.5001109,0.06837 -0.7219726,0.205108 -0.2184771,0.1364 -0.3772157,0.336092 -0.4762157,0.599077 -0.099,0.262646 -0.1484832,0.641724 -0.1484832,1.136555 v 2.821417 z"
     id="path35" />
  <path
     style="font-size:3.09841px;line-height:1.25;font-family:Arial;-inkscape-font-specification:Arial;fill:none;fill-opacity:1;stroke:#000000;stroke-width:0.179103;stroke-dasharray:none;stroke-opacity:1"
     d="m 5.7213899,79.07044 v -5.438065 h 0.921733 v 5.438065 z"
     id="path34" />
  <path
     style="font-size:3.09841px;line-height:1.25;font-family:Arial;-inkscape-font-specification:Arial;fill:none;fill-opacity:1;stroke:#000000;stroke-width:0.179103;stroke-dasharray:none;stroke-opacity:1"
     d="m 5.7213899,72.623759 v -1.060063 h 0.921733 v 1.060063 z"
     id="path33" />
  <path
     style="font-size:3.09841px;line-height:1.25;font-family:Arial;-inkscape-font-specification:Arial;fill:none;fill-opacity:1;stroke:#000000;stroke-width:0.179103;stroke-dasharray:none;stroke-opacity:1"
     d="M 0.10413504,77.447177 1.0155967,77.304008 c 0.051206,0.3652 0.1928759,0.645108 0.4250065,0.839724 0.2355491,0.194615 0.5632647,0.291754 0.9831502,0.291754 0.4233007,0 0.7373627,-0.08529 0.9421863,-0.255877 0.2048303,-0.174308 0.3072488,-0.377385 0.3072488,-0.609231 0,-0.208493 -0.090471,-0.372308 -0.2714125,-0.491785 C 3.275479,76.996685 2.9614176,76.892439 2.4596006,76.766192 1.7836857,76.595608 1.3143001,76.448715 1.0514439,76.325854 0.79200281,76.199607 0.59400605,76.02733 0.45745703,75.808684 0.32432275,75.586992 0.2577551,75.342622 0.2577551,75.076591 c 0,-0.242338 0.0546199,-0.466062 0.16385882,-0.670831 0.11265362,-0.208154 0.26456543,-0.38077 0.45573203,-0.51717 0.14337575,-0.105938 0.33795745,-0.194615 0.58374505,-0.266369 0.2492026,-0.07514 0.5154705,-0.112708 0.7988104,-0.112708 0.4267123,0 0.8005163,0.0616 1.1214051,0.184462 0.324307,0.122861 0.5632607,0.290062 0.7168885,0.501939 0.1535939,0.208154 0.2594309,0.488061 0.3174771,0.839723 L 3.5144499,75.158499 C 3.4734622,74.878591 3.3539953,74.659945 3.1560027,74.502898 2.961421,74.345852 2.6849079,74.267329 2.3264701,74.267329 c -0.4233006,0 -0.725415,0.07006 -0.9063431,0.210185 -0.1809248,0.139785 -0.2713889,0.3036 -0.2713889,0.491446 0,0.119477 0.037552,0.227108 0.1126537,0.322554 0.075105,0.09917 0.1928758,0.181077 0.3533202,0.245724 0.09217,0.03418 0.3635587,0.112707 0.8141698,0.235569 0.6520196,0.174308 1.1060451,0.317477 1.3620576,0.430185 0.2594648,0.109323 0.4625757,0.269754 0.6093665,0.481293 0.1467909,0.211877 0.2201694,0.474523 0.2201694,0.788616 0,0.307323 -0.090437,0.597385 -0.2713786,0.870523 -0.1775232,0.269754 -0.4352619,0.479601 -0.773216,0.629878 -0.3379473,0.146892 -0.7202832,0.22 -1.1469989,0.22 -0.7066371,0 -1.2460064,-0.146554 -1.61810113,-0.440339 C 0.44209763,78.459517 0.20654718,78.024255 0.10413504,77.447177 Z"
     id="text1" />
  <path
     id="path57"
     style="font-size:3.09841px;line-height:1.25;font-family:Arial;-inkscape-font-specification:Arial;fill:none;fill-opacity:1;stroke:#000000;stroke-width:0.179103;stroke-dasharray:none;stroke-opacity:1"
     d="m 40.996857,74.231791 c -0.396,0 -0.734462,0.172954 -1.017754,0.517846 -0.287016,0.344893 -0.430524,0.863755 -0.430524,1.556586 0,0.727354 0.145539,1.264493 0.438985,1.61277 0.2904,0.344554 0.641724,0.517508 1.051262,0.517508 0.40277,0 0.745293,-0.1672 1.028586,-0.501939 0.283292,-0.3344 0.425108,-0.851569 0.425108,-1.55117 0,-0.699939 -0.150954,-1.233355 -0.451508,-1.598893 -0.3036,-0.368585 -0.651539,-0.552708 -1.044155,-0.552708 l -0.142154,-0.722278 c 0.409878,0 0.713478,0.07006 0.962586,0.209846 0.249107,0.136739 0.471815,0.344554 0.669815,0.621078 v -0.706708 h 0.839386 v 7.520959 h -0.921632 v -2.646433 c -0.157046,0.198 -0.355723,0.361816 -0.598062,0.491447 -0.245723,0.129969 -0.521908,0.194277 -0.829231,0.194277 -0.419693,0 -0.82077,-0.117785 -1.199847,-0.353354 -0.382123,-0.238954 -0.67117,-0.579447 -0.86917,-1.02317 -0.201385,-0.447108 -0.302585,-0.949386 -0.302585,-1.505817 0,-0.518862 0.09037,-0.995416 0.271108,-1.428985 0.181077,-0.436955 0.449477,-0.775416 0.804524,-1.014709 0.355046,-0.238954 0.76357,-0.358431 1.173108,-0.358431 z" />
  <path
     id="path39-4"
     style="font-size:3.09841px;line-height:1.25;font-family:Arial;-inkscape-font-specification:Arial;fill:none;fill-opacity:1;stroke:#000000;stroke-width:0.179103;stroke-dasharray:none;stroke-opacity:1"
     d="m 175.46569,67.999694 c -0.75104,0 -1.36197,0.253846 -1.83311,0.758831 -0.47113,0.505323 -0.70637,1.215755 -0.70637,2.130617 0,0.884062 0.23185,1.570463 0.69588,2.061909 0.46776,0.488401 1.09899,0.733108 1.89437,0.733108 0.63157,0 1.15043,-0.152984 1.55659,-0.460308 0.40615,-0.306984 0.68403,-0.739539 0.83431,-1.29597 l -0.95142,-0.117108 c -0.14012,0.389231 -0.32966,0.672524 -0.56862,0.849878 -0.23895,0.177692 -0.52766,0.266031 -0.86578,0.266031 -0.45388,0 -0.83295,-0.1584 -1.13689,-0.475877 -0.3036,-0.317478 -0.47283,-0.775416 -0.50702,-1.372801 h 4.05613 c 0.003,-0.109324 0.005,-0.191908 0.005,-0.246739 0,-0.897601 -0.23015,-1.593478 -0.69114,-2.088309 -0.46064,-0.494831 -1.05498,-0.743262 -1.782,-0.743262 l 0.0105,0.759169 c 0.46742,0 0.84853,0.176678 1.14197,0.531385 0.19124,0.228801 0.30699,0.573016 0.34794,1.030278 h -3.03634 c 0.0308,-0.474523 0.1892,-0.8536 0.47588,-1.136893 0.29006,-0.283292 0.64714,-0.42477 1.07055,-0.42477 z" />
  <path
     id="path29-5"
     style="font-size:3.09841px;line-height:1.25;font-family:Arial;-inkscape-font-specification:Arial;fill:none;fill-opacity:1;stroke:#000000;stroke-width:0.179103;stroke-dasharray:none;stroke-opacity:1"
     d="m 190.63284,68.604863 c -0.55981,0.484678 -0.83972,1.229971 -0.83972,2.236894 0,0.918247 0.23388,1.621232 0.70129,2.109294 0.47114,0.488401 1.08782,0.73277 1.84902,0.73277 0.47452,0 0.91046,-0.112031 1.30985,-0.334062 0.40277,-0.221692 0.7084,-0.531046 0.91655,-0.930431 0.21154,-0.40277 0.31849,-0.954801 0.31849,-1.654402 0,-0.863754 -0.2376,-1.538985 -0.71212,-2.027386 -0.47452,-0.491446 -1.08545,-0.737846 -1.83277,-0.737846 v 0.762554 c 0.45388,0 0.83295,0.174646 1.13689,0.522924 0.30699,0.344892 0.45997,0.852585 0.45997,1.525108 0,0.713478 -0.15095,1.245201 -0.45489,1.593478 -0.30394,0.348278 -0.68471,0.521232 -1.14197,0.521232 -0.46099,0 -0.84379,-0.171262 -1.14739,-0.516155 -0.30394,-0.347938 -0.45658,-0.870523 -0.45658,-1.567078 0,-0.696216 0.15264,-1.217108 0.45658,-1.562001 0.3036,-0.344554 0.6864,-0.517508 1.14739,-0.517508 v -0.762554 c -0.67252,0 -1.24317,0.2024 -1.71059,0.605169" />
  <path
     style="font-size:3.09841px;line-height:1.25;font-family:Arial;-inkscape-font-specification:Arial;text-align:center;text-anchor:middle;fill:none;fill-opacity:1;stroke:#000000;stroke-width:0.179103;stroke-dasharray:none;stroke-opacity:1"
     d="m 199.46094,73.560959 v -5.438065 h 0.82416 v 0.762893 c 0.17092,-0.26637 0.39769,-0.479601 0.68132,-0.640032 0.28329,-0.163815 0.60585,-0.246061 0.96766,-0.246061 0.40277,0 0.73209,0.08394 0.98831,0.251138 0.25926,0.1672 0.44203,0.401078 0.54797,0.701293 0.43018,-0.634954 0.99,-0.952431 1.67945,-0.952431 0.53951,0 0.95412,0.150277 1.24418,0.450831 0.2904,0.296831 0.43526,0.756123 0.43526,1.377201 v 3.733233 h -0.91655 v -3.42591 c 0,-0.368585 -0.0308,-0.633262 -0.0921,-0.793693 -0.0582,-0.163815 -0.16551,-0.295138 -0.32256,-0.394308 -0.15704,-0.09883 -0.3415,-0.148246 -0.55304,-0.148246 -0.38246,0 -0.69994,0.127939 -0.95243,0.383816 -0.2525,0.252831 -0.37908,0.658985 -0.37908,1.218801 v 3.15954 h -0.92163 v -3.533202 c 0,-0.409878 -0.0751,-0.716862 -0.22542,-0.92197 -0.14994,-0.20477 -0.396,-0.306985 -0.73717,-0.306985 -0.2596,0 -0.50024,0.06803 -0.72194,0.204769 -0.21864,0.1364 -0.37738,0.336093 -0.47621,0.599078 -0.0992,0.262985 -0.14859,0.641723 -0.14859,1.136893 v 2.821417 z"
     id="path19" />
  <path
     style="font-size:3.09841px;line-height:1.25;font-family:Arial;-inkscape-font-specification:Arial;text-align:center;text-anchor:middle;fill:none;fill-opacity:1;stroke:#000000;stroke-width:0.179103;stroke-dasharray:none;stroke-opacity:1"
     d="m 195.95854,73.560959 v -5.438065 h 0.82923 v 0.824154 c 0.21188,-0.385508 0.40649,-0.640031 0.58385,-0.762893 0.18107,-0.122861 0.37907,-0.184123 0.594,-0.184123 0.31071,0 0.62649,0.09883 0.94735,0.296831 l -0.31748,0.855293 c -0.22541,-0.133354 -0.45049,-0.199692 -0.6759,-0.199692 -0.20139,0 -0.38247,0.06126 -0.5429,0.184123 -0.16043,0.119477 -0.27483,0.286677 -0.34286,0.501939 -0.10255,0.327631 -0.15366,0.686062 -0.15366,1.075293 v 2.84714 z"
     id="path18" />
  <path
     style="font-size:3.09841px;line-height:1.25;font-family:Arial;-inkscape-font-specification:Arial;text-align:center;text-anchor:middle;fill:none;fill-opacity:1;stroke:#000000;stroke-width:0.179103;stroke-dasharray:none;stroke-opacity:1"
     d="m 187.44284,73.560959 v -4.721203 h -0.814 v -0.716862 h 0.814 v -0.57877 c 0,-0.3652 0.0325,-0.636646 0.0975,-0.814 0.0887,-0.239293 0.24403,-0.431878 0.46572,-0.57877 0.22542,-0.150277 0.53951,-0.225416 0.94228,-0.225416 0.2596,0 0.54628,0.0308 0.86037,0.0924 l -0.13843,0.803847 c -0.19123,-0.03418 -0.37197,-0.05145 -0.54256,-0.05145 -0.28024,0 -0.47824,0.05991 -0.594,0.179385 -0.11609,0.119477 -0.1743,0.3432 -0.1743,0.670831 v 0.501939 h 1.06006 v 0.716862 h -1.06006 v 4.720865 z"
     id="path15" />
  <path
     style="font-size:3.09841px;line-height:1.25;font-family:Arial;-inkscape-font-specification:Arial;text-align:center;text-anchor:middle;fill:none;fill-opacity:1;stroke:#000000;stroke-width:0.179103;stroke-dasharray:none;stroke-opacity:1"
     d="m 178.45126,73.560959 1.98678,-2.826833 -1.83853,-2.611232 h 1.15212 l 0.83465,1.274985 c 0.15705,0.242339 0.28363,0.445416 0.37908,0.609232 0.15028,-0.225416 0.28837,-0.425108 0.41461,-0.599078 l 0.91656,-1.285139 h 1.10102 l -1.87914,2.560125 2.02264,2.87794 h -1.13181 l -1.11625,-1.689939 -0.29683,-0.455908 -1.42865,2.145847 z"
     id="path14" />
  <path
     style="font-size:3.09841px;line-height:1.25;font-family:Arial;-inkscape-font-specification:Arial;text-align:center;text-anchor:middle;fill:none;fill-opacity:1;stroke:#000000;stroke-width:0.179103;stroke-dasharray:none;stroke-opacity:1"
     d="m 170.88292,73.560959 v -7.507082 h 0.92163 v 7.507082 z"
     id="path11" />
  <path
     style="font-size:3.09841px;line-height:1.25;font-family:Arial;-inkscape-font-specification:Arial;text-align:center;text-anchor:middle;fill:none;fill-opacity:1;stroke:#000000;stroke-width:0.179103;stroke-dasharray:none;stroke-opacity:1"
     d="m 156.33549,73.560959 v -5.438065 h 0.82416 v 0.762893 c 0.17092,-0.26637 0.39769,-0.479601 0.68132,-0.640032 0.2833,-0.163815 0.60585,-0.246061 0.96767,-0.246061 0.40276,0 0.73209,0.08394 0.9883,0.251138 0.25927,0.1672 0.44203,0.401078 0.54797,0.701293 0.42985,-0.634954 0.99,-0.952431 1.67945,-0.952431 0.53951,0 0.95412,0.150277 1.24419,0.450831 0.2904,0.296831 0.43526,0.756123 0.43526,1.377201 v 3.733233 h -0.91656 v -3.42591 c 0,-0.368585 -0.0308,-0.633262 -0.0921,-0.793693 -0.0582,-0.163815 -0.16551,-0.295138 -0.32255,-0.394308 -0.15705,-0.09883 -0.34151,-0.148246 -0.55305,-0.148246 -0.38246,0 -0.69994,0.127939 -0.95243,0.383816 -0.25283,0.252831 -0.37908,0.658985 -0.37908,1.218801 v 3.15954 h -0.92163 v -3.533202 c 0,-0.409878 -0.0751,-0.716862 -0.22541,-0.92197 -0.14994,-0.20477 -0.396,-0.306985 -0.73717,-0.306985 -0.2596,0 -0.50025,0.06803 -0.72194,0.204769 -0.21865,0.1364 -0.37739,0.336093 -0.47622,0.599078 -0.0992,0.262985 -0.14858,0.641723 -0.14858,1.136893 v 2.821417 z"
     id="path8" />
  <path
     style="font-size:3.09841px;line-height:1.25;font-family:Arial;-inkscape-font-specification:Arial;text-align:center;text-anchor:middle;fill:none;fill-opacity:1;stroke:#000000;stroke-width:0.179103;stroke-dasharray:none;stroke-opacity:1"
     d="m 148.8081,71.568773 0.90641,0.117785 c -0.0992,0.6248 -0.35336,1.114555 -0.7629,1.469601 -0.40649,0.351662 -0.9064,0.527662 -1.5004,0.527662 -0.74428,0 -1.34335,-0.242339 -1.79723,-0.727354 -0.45083,-0.488062 -0.67591,-1.186309 -0.67591,-2.094064 0,-0.587231 0.0971,-1.101016 0.29176,-1.541354 0.19461,-0.440339 0.48975,-0.770001 0.88575,-0.988309 0.39938,-0.222031 0.83295,-0.332708 1.30071,-0.332708 0.59061,0 1.0736,0.149939 1.44895,0.450493 0.3757,0.296831 0.61634,0.720246 0.72228,1.269908 l -0.89625,0.138093 c -0.0853,-0.3652 -0.23726,-0.640031 -0.45557,-0.824155 -0.21526,-0.184461 -0.47621,-0.276523 -0.78353,-0.276523 -0.46437,0 -0.84142,0.1672 -1.13182,0.5016 -0.29006,0.331355 -0.43526,0.856986 -0.43526,1.577232 0,0.730401 0.14012,1.261447 0.42003,1.592463 0.27991,0.331016 0.64511,0.496862 1.09594,0.496862 0.36181,0 0.66372,-0.111015 0.90606,-0.333046 0.24268,-0.221693 0.396,-0.563201 0.46098,-1.024186 z"
     id="path4" />
  <path
     style="font-size:3.09841px;line-height:1.25;font-family:Arial;-inkscape-font-specification:Arial;text-align:center;text-anchor:middle;fill:none;fill-opacity:1;stroke:#000000;stroke-width:0.179103;stroke-dasharray:none;stroke-opacity:1"
     d="M 181.10108,86.669584 V 79.16284 h 0.92163 v 4.280526 l 2.18139,-2.211847 h 1.19308 l -2.07883,2.01757 2.28867,3.420495 h -1.13655 l -1.79757,-2.780463 -0.65019,0.624462 v 2.156001 z"
     id="path54" />
  <path
     style="font-size:3.09841px;line-height:1.25;font-family:Arial;-inkscape-font-specification:Arial;text-align:center;text-anchor:middle;fill:none;fill-opacity:1;stroke:#000000;stroke-width:0.179103;stroke-dasharray:none;stroke-opacity:1"
     d="m 179.40099,84.677398 0.9064,0.117785 c -0.0992,0.6248 -0.35335,1.114893 -0.76289,1.469939 -0.4065,0.351324 -0.9064,0.527324 -1.5004,0.527324 -0.74428,0 -1.34336,-0.242339 -1.79724,-0.727355 -0.45083,-0.488061 -0.67591,-1.18597 -0.67591,-2.094063 0,-0.587231 0.0971,-1.101016 0.29176,-1.541355 0.19461,-0.440338 0.48975,-0.769662 0.88575,-0.988308 0.39939,-0.222031 0.83296,-0.332708 1.30071,-0.332708 0.59062,0 1.0736,0.149939 1.4493,0.450493 0.37535,0.296831 0.616,0.720246 0.72193,1.269908 l -0.89624,0.138093 c -0.0853,-0.365201 -0.23726,-0.640032 -0.45557,-0.824155 -0.21526,-0.184461 -0.47622,-0.276523 -0.78354,-0.276523 -0.46437,0 -0.84142,0.1672 -1.13182,0.5016 -0.29006,0.331354 -0.43526,0.856986 -0.43526,1.577232 0,0.730401 0.14012,1.261447 0.42003,1.592463 0.27991,0.331016 0.64511,0.496862 1.09594,0.496862 0.36182,0 0.66372,-0.111016 0.90606,-0.333047 0.24268,-0.221692 0.396,-0.5632 0.46099,-1.024185 z"
     id="path53" />
  <path
     style="font-size:3.09841px;line-height:1.25;font-family:Arial;-inkscape-font-specification:Arial;text-align:center;text-anchor:middle;fill:none;fill-opacity:1;stroke:#000000;stroke-width:0.179103;stroke-dasharray:none;stroke-opacity:1"
     d="m 173.52766,86.669584 v -5.438065 h 0.92163 v 5.438065 z"
     id="path52" />
  <path
     style="font-size:3.09841px;line-height:1.25;font-family:Arial;-inkscape-font-specification:Arial;text-align:center;text-anchor:middle;fill:none;fill-opacity:1;stroke:#000000;stroke-width:0.179103;stroke-dasharray:none;stroke-opacity:1"
     d="M 173.52766,80.222564 V 79.16284 h 0.92163 v 1.059724 z"
     id="path51" />
  <path
     style="font-size:3.09841px;line-height:1.25;font-family:Arial;-inkscape-font-specification:Arial;text-align:center;text-anchor:middle;fill:none;fill-opacity:1;stroke:#000000;stroke-width:0.179103;stroke-dasharray:none;stroke-opacity:1"
     d="m 170.02018,86.669584 v -5.438065 h 0.82957 v 0.824154 c 0.21154,-0.385508 0.40616,-0.640031 0.58351,-0.762893 0.18108,-0.122861 0.37908,-0.184123 0.594,-0.184123 0.31071,0 0.62649,0.09883 0.94735,0.296831 l -0.31747,0.855293 c -0.22508,-0.133354 -0.4505,-0.199692 -0.67591,-0.199692 -0.20139,0 -0.38212,0.06126 -0.54255,0.184123 -0.16077,0.119477 -0.27484,0.287015 -0.34321,0.501939 -0.10255,0.327631 -0.15366,0.686062 -0.15366,1.075293 v 2.84714 z"
     id="path50" />
  <path
     style="font-size:3.09841px;line-height:1.25;font-family:Arial;-inkscape-font-specification:Arial;text-align:center;text-anchor:middle;fill:none;fill-opacity:1;stroke:#000000;stroke-width:0.179103;stroke-dasharray:none;stroke-opacity:1"
     d="m 169.12901,85.845091 0.13336,0.814001 c -0.2596,0.05483 -0.49179,0.08191 -0.69656,0.08191 -0.3344,0 -0.594,-0.0528 -0.77812,-0.158739 -0.18446,-0.1056 -0.31409,-0.244031 -0.38923,-0.414616 -0.0751,-0.173969 -0.11271,-0.537477 -0.11271,-1.090524 v -3.12874 h -0.67591 v -0.716862 h 0.67591 v -1.34674 l 0.91655,-0.553046 v 1.899786 h 0.92671 v 0.716862 h -0.92671 v 3.179848 c 0,0.262647 0.0152,0.431877 0.046,0.507016 0.0342,0.0748 0.087,0.134708 0.15874,0.179046 0.0751,0.04434 0.18108,0.06668 0.31748,0.06668 0.10255,0 0.23726,-0.01218 0.40446,-0.03588 z"
     id="path5" />
  <path
     id="path56"
     style="font-size:3.09841px;line-height:1.25;font-family:Arial;-inkscape-font-specification:Arial;fill:none;fill-opacity:1;stroke:#000000;stroke-width:0.179103;stroke-dasharray:none;stroke-opacity:1"
     d="m 167.40116,68.72231 c 0.396,0 0.73447,0.172954 1.01776,0.517508 0.28668,0.344892 0.43018,0.863754 0.43018,1.556585 0,0.727355 -0.1452,1.264494 -0.43898,1.612771 -0.29006,0.344892 -0.64139,0.517846 -1.05092,0.517846 -0.40311,0 -0.7453,-0.167538 -1.02859,-0.502277 -0.28329,-0.3344 -0.42511,-0.85157 -0.42511,-1.55117 0,-0.699939 0.15096,-1.233355 0.45151,-1.598555 0.3036,-0.368924 0.65154,-0.552708 1.04415,-0.552708 l 0.14182,-0.722616 c -0.40954,0 -0.71314,0.07006 -0.96225,0.209846 -0.2491,0.136739 -0.47181,0.344554 -0.66981,0.621077 v -0.706708 h -0.83973 v 7.520959 h 0.92197 v -2.646432 c 0.15705,0.198 0.35573,0.361815 0.59807,0.491785 0.24572,0.129631 0.5219,0.193938 0.82923,0.193938 0.41969,0 0.82077,-0.117784 1.19984,-0.353354 0.38213,-0.238954 0.67117,-0.579446 0.86917,-1.02317 0.20139,-0.447108 0.30259,-0.949385 0.30259,-1.505816 0,-0.518862 -0.0904,-0.995416 -0.27111,-1.428986 -0.18108,-0.436954 -0.44948,-0.775416 -0.80452,-1.01437 -0.35505,-0.238954 -0.76357,-0.358769 -1.17345,-0.358769 z" />
  <path
     id="path58"
     style="font-size:3.09841px;line-height:1.25;font-family:Arial;-inkscape-font-specification:Arial;fill:none;fill-opacity:1;stroke:#000000;stroke-width:0.179103;stroke-dasharray:none;stroke-opacity:1"
     d="m 150.99964,68.604863 c -0.55981,0.484678 -0.83972,1.229971 -0.83972,2.236894 0,0.918247 0.23388,1.621232 0.70129,2.109294 0.47114,0.488401 1.08748,0.73277 1.84902,0.73277 0.47452,0 0.91046,-0.112031 1.30985,-0.334062 0.40277,-0.221692 0.7084,-0.531046 0.91655,-0.930431 0.21154,-0.40277 0.31816,-0.954801 0.31816,-1.654402 0,-0.863754 -0.23727,-1.538985 -0.71179,-2.027386 -0.47452,-0.491446 -1.08545,-0.737846 -1.83277,-0.737846 v 0.762554 c 0.45388,0 0.83296,0.174646 1.13689,0.522924 0.30699,0.344892 0.45997,0.852585 0.45997,1.525108 0,0.713478 -0.15095,1.245201 -0.45489,1.593478 -0.30394,0.348278 -0.68471,0.521232 -1.14197,0.521232 -0.46098,0 -0.84378,-0.171262 -1.14738,-0.516155 -0.30394,-0.347938 -0.45659,-0.870523 -0.45659,-1.567078 0,-0.696216 0.15265,-1.217108 0.45659,-1.562001 0.3036,-0.344554 0.6864,-0.517508 1.14738,-0.517508 v -0.762554 c -0.67252,0 -1.24317,0.2024 -1.71059,0.605169" />
  <path
     id="path2"
     style="fill:none;fill-opacity:1;stroke:#000000;stroke-width:0.179103;stroke-linecap:butt;stroke-linejoin:miter;stroke-dasharray:none;stroke-opacity:1"
     d="m 141.90348,38.636103 7.69595,18.275921 20.68069,-11.543578 -12.81856,-1.320677 -5.96776,4.241603 -2.21963,-6.716436 c 0,0 -0.18988,-8.854769 2.90671,-8.761015 0.32052,0.0098 0.6759,0.114874 1.07055,0.335822 4.20877,2.356573 1.43406,5.656237 -0.32357,3.594328 -1.75729,-2.061909 -2.72902,0.884062 -0.92535,1.885571 1.804,1.001508 5.39677,-1.91434 6.27542,-0.02911 0.87864,1.885232 -0.50736,4.830865 -0.50736,4.830865 l 12.8189,1.320339 c 0,0 4.80887,-8.01579 1.76305,-13.145787 -3.04615,-5.130032 -14.73764,1.74169 -20.99004,-0.983638 -6.25241,-2.725362 -2.88607,-10.740983 3.20591,-5.129964 6.09197,5.610986 15.71173,-3.366374 1.12301,-9.778939 l 1.93567,2.784863 c 1.7116,0 3.09895,1.387525 3.09895,3.099092 0,1.711567 -1.38735,3.099058 -3.09895,3.099058 -1.71161,0 -3.0993,-1.387491 -3.0993,-3.099058 0,-1.711567 0.7436,-3.202153 2.45486,-3.202153 l -1.93532,-2.78483 c -1.36772,-0.601176 -1.95699,-0.785265 -3.06748,-0.811665 -10.73465,-0.255099 -10.07635,23.839386 -10.07635,23.839386 z" />
  <path
     id="path59"
     style="fill:none;fill-opacity:1;stroke:#000000;stroke-width:0.179103;stroke-linecap:butt;stroke-linejoin:miter;stroke-dasharray:none;stroke-opacity:1"
     d="m 178.76028,38.636103 7.69561,18.275921 20.68103,-11.543578 -12.81891,-1.320677 -5.96775,4.241603 -2.21964,-6.716436 c 0,0 -0.18987,-8.854769 2.90705,-8.761015 0.32019,0.0098 0.67591,0.114874 1.07022,0.335822 4.20877,2.356573 1.43406,5.656237 -0.32357,3.594328 -1.75729,-2.061909 -2.72868,0.884062 -0.92502,1.885571 1.80367,1.001508 5.08708,-1.295971 5.96607,0.589262 0.87865,1.885232 -0.50736,4.830865 -0.50736,4.830865 l 12.81891,1.320677 c 0,0 4.80886,-8.01579 1.76304,-13.145956 -3.04615,-5.130066 -14.42862,1.123219 -20.68103,-1.602109 -6.25206,-2.725362 -2.88572,-10.740983 3.20625,-5.129964 6.09198,5.610986 15.7114,-3.366375 1.12268,-9.778939 l 1.93566,2.784863 c 1.7116,0 3.0993,1.387524 3.0993,3.099092 0,1.711567 -1.3877,3.099057 -3.0993,3.099057 -1.7116,0 -3.09895,-1.38749 -3.09895,-3.099057 0,-1.711568 1.38735,-3.099092 3.09895,-3.099092 l -1.93566,-2.784863 c -1.36772,-0.601176 -2.60074,-0.888361 -3.71123,-0.914761 -10.735,-0.255099 -10.07635,23.839386 -10.07635,23.839386 z" />
  <path
     style="font-size:3.10007px;line-height:1.25;font-family:Arial;-inkscape-font-specification:Arial;fill:none;stroke:#000000;stroke-width:0.10501"
     d="M 171.24846,3.3898102 V 0.12670199 h 0.49754 v 0.46396476 c 0.23997,-0.3584713 0.58588,-0.5377078 1.03874,-0.5377078 0.19664,0 0.37671,0.0358475 0.54086,0.10754284 0.16585,0.069651 0.28972,0.16182874 0.37163,0.27653377 0.0819,0.11471486 0.13945,0.25093219 0.17194,0.40865876 0.0206,0.10242869 0.0308,0.28166448 0.0308,0.53770748 v 2.0064084 h -0.55305 V 1.404911 c 0,-0.2253241 -0.0213,-0.3932959 -0.0643,-0.50390864 -0.043,-0.11266039 -0.11981,-0.20176384 -0.23049,-0.26731711 -0.10864,-0.0675976 -0.23658,-0.101393 -0.38415,-0.101393 -0.23557,0 -0.43933,0.0747662 -0.6116,0.22430201 -0.16991,0.14953241 -0.25486,0.43323784 -0.25486,0.85111294 V 3.389844 Z"
     id="path61" />
  <path
     style="font-size:3.10007px;line-height:1.25;font-family:Arial;-inkscape-font-specification:Arial;fill:none;stroke:#000000;stroke-width:0.10501"
     d="m 167.88076,2.415805 0.54696,-0.086027 c 0.0308,0.2191811 0.11575,0.3871495 0.25486,0.5039086 0.14148,0.1167592 0.33812,0.1751371 0.58994,0.1751371 0.25418,0 0.44271,-0.051213 0.56557,-0.1536413 0.12286,-0.1044697 0.18446,-0.2263498 0.18446,-0.3656403 0,-0.1249601 -0.0545,-0.2232833 -0.16314,-0.2949728 -0.0758,-0.049165 -0.264,-0.1116417 -0.56523,-0.1874368 -0.40548,-0.1024287 -0.68741,-0.19051 -0.84514,-0.2642439 -0.15569,-0.075795 -0.27449,-0.1792426 -0.3564,-0.3103356 -0.0799,-0.1331475 -0.11981,-0.27961 -0.11981,-0.43938431 0,-0.14543703 0.0328,-0.27961005 0.0985,-0.40251229 0.0677,-0.12496009 0.15874,-0.22840417 0.27348,-0.31033696 0.086,-0.0634931 0.20273,-0.11675003 0.3503,-0.15977089 0.1496,-0.0450628 0.30936,-0.0675942 0.47927,-0.0675942 0.25621,0 0.48027,0.03686965 0.67286,0.11060931 0.19461,0.0737373 0.33812,0.17410914 0.43018,0.30111726 0.0921,0.12495671 0.1557,0.29292514 0.19056,0.50390868 l -0.54087,0.0737441 c -0.0244,-0.16796848 -0.0961,-0.29906827 -0.21492,-0.39329603 -0.11677,-0.0942278 -0.28295,-0.14133825 -0.49788,-0.14133825 -0.25418,0 -0.43526,0.0419896 -0.5439,0.12597209 -0.10865,0.0839791 -0.1628,0.18230228 -0.1628,0.29496944 0,0.0716929 0.0223,0.13621735 0.0677,0.19356625 0.045,0.059407 0.11575,0.1085684 0.21188,0.1474915 0.0552,0.020487 0.2183,0.067601 0.4884,0.1413383 0.39126,0.1044696 0.66372,0.1905032 0.81738,0.2581008 0.15569,0.06555 0.27754,0.1618253 0.36588,0.2888264 0.088,0.127001 0.132,0.2847309 0.132,0.4731831 0,0.1843567 -0.0542,0.3584716 -0.1628,0.5223447 -0.10662,0.1618253 -0.26129,0.2878008 -0.46403,0.3779332 -0.20274,0.088068 -0.43222,0.1321351 -0.68843,0.1321351 -0.42376,0 -0.74767,-0.088091 -0.97071,-0.2642571 -0.22136,-0.176166 -0.3625,-0.4373366 -0.4241,-0.7835187 z"
     id="text60" />
  <path
     id="path65"
     style="font-size:3.09841px;line-height:1.25;font-family:Arial;-inkscape-font-specification:Arial;fill:none;fill-opacity:1;stroke:#000000;stroke-width:0.107414;stroke-dasharray:none;stroke-opacity:1"
     d="m 179.64603,0.48739191 c 0.23727,0 0.44034,0.103725 0.61025,0.31049469 0.17194,0.2067798 0.25825,0.5179684 0.25825,0.9335758 0,0.4360741 -0.0873,0.7583134 -0.26333,0.967141 -0.17396,0.2067798 -0.38483,0.3104946 -0.63055,0.3104946 -0.24166,0 -0.44677,-0.1004182 -0.61668,-0.3010516 -0.1699,-0.2006333 -0.25486,-0.5107286 -0.25486,-0.930428 0,-0.4196994 0.0904,-0.7396879 0.27043,-0.95875056 0.18243,-0.2211137 0.39093,-0.33147255 0.62649,-0.33147255 l 0.085,-0.4332216 c -0.24539,2.03e-6 -0.42748,0.04193541 -0.57708,0.12587055 -0.14926,0.0818841 -0.28295,0.20655036 -0.40175,0.3723831 V 0.12864476 h -0.5033 V 4.6391742 h 0.55271 V 3.052103 c 0.0941,0.1187459 0.21323,0.2169608 0.35877,0.2947596 0.14723,0.077809 0.31274,0.1164278 0.4972,0.1164278 0.25182,0 0.49213,-0.070603 0.71957,-0.2118842 0.22914,-0.1433081 0.40243,-0.3474953 0.52123,-0.6136447 0.12083,-0.2681971 0.18142,-0.5694417 0.18142,-0.9031548 0,-0.311192 -0.0538,-0.5969925 -0.16246,-0.8570022 -0.10865,-0.26205742 -0.26976,-0.46508711 -0.48265,-0.6083986 -0.21289,-0.1433081 -0.45794,-0.21503492 -0.70366,-0.21503492 z" />
  <path
     id="path66"
     style="font-size:3.09841px;line-height:1.25;font-family:Arial;-inkscape-font-specification:Arial;fill:none;fill-opacity:1;stroke:#000000;stroke-width:0.107414;stroke-dasharray:none;stroke-opacity:1"
     d="m 174.56132,2.5292472 c 0,0.2722925 0.0958,0.4963136 0.28837,0.6723848 0.19259,0.1740202 0.46843,0.2611846 0.82653,0.2611846 0.21695,0 0.42003,-0.035335 0.60855,-0.1069848 0.19022,-0.071656 0.38788,-0.1952112 0.59265,-0.3692347 0.0166,0.1535601 0.0528,0.2881528 0.11,0.4028069 h 0.57707 c -0.0697,-0.1248859 -0.11609,-0.2551023 -0.1408,-0.3902229 -0.0227,-0.1371785 -0.0335,-0.4627077 -0.0335,-0.9765841 V 1.2851802 c 0,-0.2456827 -0.01,-0.41562432 -0.0284,-0.50979793 -0.0328,-0.15150903 -0.09,-0.27620851 -0.17194,-0.3744775 -0.0819,-0.10031703 -0.20985,-0.18309463 -0.38382,-0.24860729 -0.17397,-0.06550251 -0.4004,-0.09859053 -0.67861,-0.09859053 -0.28059,0 -0.52665,0.03968464 -0.73954,0.11749024 -0.21323,0.0757545 -0.37637,0.18502385 -0.48908,0.32832519 -0.11237,0.14125702 -0.19292,0.32774947 -0.24234,0.55909822 l 0.54052,0.073419 c 0.0592,-0.23134205 0.15096,-0.39243632 0.27348,-0.48252131 0.12489,-0.0921361 0.31714,-0.13742226 0.57708,-0.13742226 0.27855,0 0.48806,0.0618302 0.62954,0.18670568 0.10424,0.0921361 0.15704,0.25102357 0.15704,0.47622929 0,0.020477 -0.001,0.068995 -0.003,0.1447499 -0.21086,0.073704 -0.53985,0.1366506 -0.98594,0.1898534 -0.21932,0.026603 -0.38246,0.054198 -0.49111,0.082859 -0.14723,0.040944 -0.28092,0.1016367 -0.39972,0.1814697 -0.11643,0.079833 -0.21154,0.1858155 -0.28533,0.3188852 -0.0714,0.1310287 -0.10796,0.2766823 -0.10796,0.4363686 l 0.5896,-0.01584 c 0,-0.096215 0.0254,-0.1823429 0.0765,-0.2601451 0.0511,-0.079833 0.12421,-0.140526 0.21831,-0.1814697 0.0941,-0.040944 0.2552,-0.077379 0.4823,-0.1101389 0.40142,-0.057322 0.70265,-0.1279013 0.90336,-0.2097921 v 0.2034967 c 0,0.2436282 -0.0298,0.4279139 -0.0894,0.5528029 -0.0778,0.1617407 -0.20003,0.2897504 -0.36587,0.3839206 -0.16585,0.092136 -0.35471,0.1374222 -0.5676,0.1374222 -0.21493,0 -0.37942,-0.048576 -0.49179,-0.1468619 -0.11068,-0.098266 -0.16584,-0.2218279 -0.16584,-0.3692347 z" />
  <path
     id="path12"
     style="color:#000000;fill:none;stroke:#000000;stroke-width:0.2;stroke-dasharray:none;stroke-opacity:1"
     d="M 3.5527547 95.765731 L -0.0020670573 99.318486 L 3.5527547 102.87331 L 4.3010295 102.12297 L 2.0272664 99.849719 L 207.97284 99.849719 L 205.69907 102.12297 L 206.44735 102.87331 L 210.00217 99.318486 L 206.44735 95.765731 L 205.69907 96.513489 L 207.9749 98.789319 L 2.0251994 98.789319 L 4.3010295 96.513489 L 3.5527547 95.765731 z " />
  <path
     style="-inkscape-font-specification:Arial;stroke-width:0.2;stroke-dasharray:none;stroke:#000000;stroke-opacity:1;fill:none"
     d="m 114.70785,97.611832 v -5.48802 h 0.83199 v 0.769976 q 0.25838,-0.403074 0.68729,-0.645953 0.42891,-0.248046 0.97668,-0.248046 0.60978,0 0.99735,0.253214 0.39274,0.253213 0.55294,0.707965 0.65112,-0.961179 1.69498,-0.961179 0.81649,0 1.25574,0.454751 0.43924,0.449584 0.43924,1.390092 v 3.7672 h -0.925 v -3.457143 q 0,-0.558103 -0.093,-0.800982 -0.0879,-0.248046 -0.32556,-0.397907 -0.23771,-0.149861 -0.5581,-0.149861 -0.57878,0 -0.96118,0.387572 -0.38241,0.382404 -0.38241,1.229895 v 3.188426 h -0.93017 v -3.565663 q 0,-0.620115 -0.22737,-0.930173 -0.22738,-0.310057 -0.74414,-0.310057 -0.39274,0 -0.72864,0.206705 -0.33073,0.206705 -0.48059,0.604612 -0.14986,0.397907 -0.14986,1.147213 v 2.847363 z"
     id="path24" />
  <path
     style="-inkscape-font-specification:Arial;stroke-width:0.2;stroke-dasharray:none;stroke:#000000;stroke-opacity:1;fill:none"
     d="m 105.89188,97.611832 v -5.48802 h 0.83199 v 0.769976 q 0.25838,-0.403074 0.68729,-0.645953 0.42891,-0.248046 0.97668,-0.248046 0.60978,0 0.99735,0.253214 0.39274,0.253213 0.55294,0.707965 0.65112,-0.961179 1.69498,-0.961179 0.81649,0 1.25573,0.454751 0.43925,0.449584 0.43925,1.390092 v 3.7672 h -0.925 v -3.457143 q 0,-0.558103 -0.093,-0.800982 -0.0879,-0.248046 -0.32556,-0.397907 -0.23771,-0.149861 -0.5581,-0.149861 -0.57878,0 -0.96118,0.387572 -0.38241,0.382404 -0.38241,1.229895 v 3.188426 h -0.93017 v -3.565663 q 0,-0.620115 -0.22738,-0.930173 -0.22737,-0.310057 -0.74413,-0.310057 -0.39274,0 -0.72864,0.206705 -0.33073,0.206705 -0.48059,0.604612 -0.14986,0.397907 -0.14986,1.147213 v 2.847363 z"
     id="path23" />
  <path
     style="-inkscape-font-specification:Arial;stroke-width:0.2;stroke-dasharray:none;stroke:#000000;stroke-opacity:1;fill:none"
     d="m 97.365294,97.611832 h -0.930172 v -5.927268 q -0.335896,0.320393 -0.883665,0.640785 -0.5426,0.320393 -0.976681,0.48059 v -0.899167 q 0.780312,-0.366902 1.364253,-0.888832 0.583942,-0.52193 0.826821,-1.012855 h 0.599444 z"
     id="path13" />
  <path
     style="-inkscape-font-specification:Arial;stroke-width:0.2;stroke-dasharray:none;stroke:#000000;stroke-opacity:1;fill:none"
     d="m 92.864292,96.717832 v 0.894 h -5.007431 q -0.01033,-0.335896 0.108521,-0.645954 0.191202,-0.511595 0.609779,-1.007687 0.423746,-0.496092 1.21956,-1.147213 1.235063,-1.012855 1.669144,-1.601964 0.434081,-0.594277 0.434081,-1.121375 0,-0.552936 -0.397908,-0.930173 -0.392739,-0.382405 -1.028357,-0.382405 -0.671792,0 -1.074867,0.403075 -0.403075,0.403075 -0.408242,1.116208 l -0.956011,-0.09819 q 0.09819,-1.069699 0.73897,-1.627803 0.640786,-0.563271 1.72082,-0.563271 1.090369,0 1.725987,0.604612 0.635618,0.604613 0.635618,1.498612 0,0.454751 -0.186034,0.894 -0.186035,0.439248 -0.620115,0.925005 -0.428913,0.485757 -1.431433,1.333247 -0.837155,0.702798 -1.074866,0.956011 -0.237711,0.248047 -0.39274,0.50126 z"
     id="text12" />
</svg>
